<svg id="Lag_1" data-name="Lag 1" xmlns="http://www.w3.org/2000/svg" viewBox="0 0 1000 1000"><path d="M818,638.75H263.32c-19.18,0-38.49-.67-57.65,0-.49,0-1,0-1.47,0H204c2.11,0,1.65.63.21-.08a16,16,0,0,1,2.37,1.37c-2-1.35-.41-.62,0,.18q.89,2.6.14.11l.26,1.42c0-1.53,0-3.07,0-4.6v-383c0-.73,0-1.47,0-2.2s.37.25-.26,1.2c1.81-2.74-2.93,2.14-.16.29-.22.14-3.58,1.69-1.77,1.2,1.63-.44-.46.11-.81.09,1,.07,2.1,0,3.13,0H809.52c2.3,0,4.63.11,6.93,0,.47,0,.94,0,1.41,0,.65,0-.28.49-1.28-.26,2.68,2-2.23-3-.29-.16a16,16,0,0,1-1.37-2.37c.71,1.44.13,1.89.08-.21.14,6,0,12,0,18V639.33c0,.72,0,1.43,0,2.15v.27c0-2.11.63-1.65-.08-.21a16,16,0,0,1,1.37-2.37c-1.35,2-.62.41.18,0,3-1.6-2-.21,1.53-.4-7.82.42-15.38,6.6-15,15,.35,7.76,6.61,15.46,15,15,15.51-.84,26.78-12.37,27-28,0-2.91,0-5.82,0-8.72v-315c0-21.72.75-43.59,0-65.31-.53-15.27-12.35-26.62-27.52-27-1.78,0-3.56,0-5.35,0H206.82a43.47,43.47,0,0,0-6.12.34c-14.21,1.91-23.51,13.7-23.7,27.74-.11,8.63,0,17.27,0,25.89V637c0,1.57-.06,3.15,0,4.72.64,15.42,12.3,26.57,27.62,27,5.5.15,11,0,16.54,0H818c7.85,0,15.36-6.9,15-15S826.41,638.75,818,638.75Z"/><path d="M367,839.25H655c11.89,0,18-12.6,13-22.57l-63.5-125.5c-2.34-4.63-7.92-7.43-13-7.43h-162c-5,0-10.64,2.79-12.95,7.43q-31.26,62.75-62.5,125.5c-3.61,7.25-1.94,16.24,5.38,20.52,6.64,3.89,16.9,1.9,20.52-5.38q31.26-62.74,62.5-125.5l-12.95,7.43h162l-13-7.43,63.5,125.5,13-22.57H367c-7.85,0-15.36,6.9-15,15S358.59,839.25,367,839.25Z"/><path d="M472.72,453.79,334,357.5c-6.19-4.29-17.34-1.59-20.52,5.39a135.24,135.24,0,0,0-7.94,91,122.56,122.56,0,0,0,4.72,14.21,72.24,72.24,0,0,0,3.09,7.32c2.63,4.95,9.16,8.23,13.67,11.41L372.73,519l45.69,32.16,22.84,16.08,10.61,7.47c1.86,1.31,3.72,2.9,5.71,4,3.67,2.08,7.47,2.06,11.52,1.65l110.54-11.3L704,556.34c6-.62,11.31-3.26,13.71-9.22,2-5.06,1.6-12.67-3.1-16.39a51.14,51.14,0,0,1-4.93-4.37c-.69-.71-1.33-1.44-2-2.17s-.65-.75,0,.14l-.87-1.21c-1.12-1.66-2.19-3.34-3.15-5.11a24,24,0,0,0-1.22-2.31c.48,1-.57-1.49-.67-1.75a58.9,58.9,0,0,1-1.95-6.65c-.23-1-.43-2-.62-3.05.42,2.27-.11-1-.14-1.45a58.19,58.19,0,0,1-.14-7.11c0-1.06.12-2.12.23-3.18-.2,1.93.17-.95.3-1.59a55.52,55.52,0,0,1,1.51-5.8c.36-1.12.75-2.23,1.18-3.32-.54,1.36-.5,1,.1-.09.89-1.63,1.71-3.28,2.69-4.86.7-1.12,3.41-4.72,1.11-1.88a56,56,0,0,1,4.92-5.4c.65-.62,1.36-1.18,2-1.8,2.14-2.06-2.92,2.18-1.44,1.08,9.07-6.74,10.16-19.37,0-25.9l-134.9-86.83c-5.3-3.41-10.53-7-15.92-10.24-7.46-4.5-15.88-2.76-24.19-2.29l-39.83,2.25-80.65,4.56-89.62,5.06c-7.82.44-15.38,6.58-15,15,.35,7.74,6.61,15.47,15,15l225-12.71-7.57-2.05,152.5,98.15V443c-13.43,10-23.29,24.92-26.16,41.55-4.2,24.38,3.13,51.65,23.12,67.44L704,526.34,465.15,550.75l7.57,2L334,455.15l5.38,5.38a9.73,9.73,0,0,0-.52-1.19c-1.25-2,1.1,2.88.48,1.14-.4-1.12-.88-2.22-1.3-3.33-1.08-2.91-2.05-5.87-2.9-8.85q-1.57-5.48-2.63-11.06a62.5,62.5,0,0,1-1.37-11.49A101.44,101.44,0,0,1,333.09,398a113.92,113.92,0,0,1,3.43-12.44c.55-1.65,1.15-3.29,1.78-4.91,0-.07,1.53-3.59.58-1.45s.46-1,.53-1.13l-20.52,5.38L457.58,479.7c6.66,4.62,16.66,1.22,20.52-5.38,4.36-7.46,1.29-15.89-5.38-20.53Z"/><path d="M474.2,485.51l64.28-4.94,102.43-7.87,23.46-1.8c7.81-.6,15.39-6.47,15-15-.34-7.62-6.62-15.65-15-15l-64.28,4.94L497.67,453.7l-23.47,1.81c-7.8.6-15.38,6.47-15,15,.34,7.61,6.62,15.64,15,15Z"/><path d="M491.56,551.07a51.65,51.65,0,0,1-3.65-3.89,13.26,13.26,0,0,1-1.3-1.59s2,2.85.66.81c-1-1.48-2-2.93-2.95-4.47a49.74,49.74,0,0,1-7.52-21.79,76.44,76.44,0,0,1,.05-14.82c.45-4.74-.3,1.42.17-1.14.22-1.15.42-2.29.67-3.43q.63-2.83,1.47-5.61c.54-1.8,1.18-3.56,1.82-5.34.94-2.61-.47,0-.23.46-.09-.16.6-1.36.7-1.55.81-1.66,1.62-3.3,2.55-4.9a15,15,0,0,0-25.91-15.14c-18.61,32.11-14.9,77.33,12.25,103.62a15.28,15.28,0,0,0,21.22,0c5.67-5.68,5.84-15.56,0-21.22Z"/></svg>