<svg id="Lag_1" data-name="Lag 1" xmlns="http://www.w3.org/2000/svg" viewBox="0 0 1000 1000"><path d="M430.75,325c0,1.41-.11,2.8-.18,4.2,0,.62-.48,2.88,0,.11a52.94,52.94,0,0,1-1.58,6.58c0-.12-1.42,4-.62,2s-.92,1.92-.88,1.84a54.19,54.19,0,0,1-3.73,6.2c-1.39,2,2.32-2.43-.47.6-.59.64-1.15,1.31-1.75,1.95a49.31,49.31,0,0,1-4.81,4.44c2.3-1.85-2.59,1.61-3.47,2.11s-1.94,1-2.92,1.54q-.89.45-1.8.84,2.29-1-.14-.05c-2.18.6-4.33,1.2-6.52,1.76-.55.14-2.92.42-.07.09-1.16.13-2.31.21-3.47.26-2.11.09-4.2,0-6.31-.13-4.25-.19,2.62.82-1.45-.22-1.32-.34-2.65-.58-4-1-1.08-.31-2.13-.68-3.19-1-2.4-.8,3,1.61-.73-.27a61.11,61.11,0,0,1-5.76-3.2c-.74-.48-1.46-1-2.17-1.49,2.33,1.66,0,0-.55-.52-1.77-1.65-3.43-3.34-5.06-5.12-2.76-3,1.28,2.34-.85-1.13-.46-.75-1-1.46-1.43-2.21a44.62,44.62,0,0,1-3.05-5.86c1.08,2.57.19.36.05-.14-.35-1.3-.83-2.56-1.16-3.87-.22-.88-.37-1.77-.6-2.65-.29-1.76-.32-1.79-.09-.07-.08-.69-.14-1.38-.18-2.08a49.21,49.21,0,0,1-.05-6.31c0-.45.69-4.88.08-1.5.16-.9.32-1.79.52-2.67a64.51,64.51,0,0,1,1.93-6.44c-.92,2.7,0,0,.34-.69.71-1.37,1.41-2.74,2.21-4.06.46-.75,1-1.46,1.43-2.21,2.15-3.49-1.15,1.25.43-.62a51.86,51.86,0,0,1,4.5-4.75c.81-.75,1.63-1.47,2.48-2.15-2.12,1.71-.35.28.12,0,2.28-1.39,4.48-2.73,6.86-3.93,2.58-1.3.67-.25.1-.05,1.26-.44,2.52-.89,3.82-1.26.86-.24,1.74-.47,2.62-.67.41-.09,4.82-.77,1.4-.37a48.91,48.91,0,0,1,6.28-.3c1.17,0,2.33.09,3.5.17,4.24.26-2.64-.72,1.45.22a74.06,74.06,0,0,1,7.77,2.21c-2.52-.88-.45-.23.1.05,1.38.69,2.75,1.38,4.08,2.17.95.55,1.84,1.19,2.78,1.76,3.32,2-1.73-1.79,1.13.85,1.95,1.79,3.76,3.6,5.55,5.55s.46.58.09.06c.89,1.25,1.74,2.53,2.52,3.85.57,1,1.1,1.91,1.59,2.89.2.39,1.66,4.22.63,1.29a74.06,74.06,0,0,1,2.21,7.77c.65,2.82.17.74.09.07a54.91,54.91,0,0,1,.31,5.58c.11,7.84,6.82,15.37,15,15,8-.36,15.12-6.59,15-15a65.51,65.51,0,0,0-43.1-60.82c-24.48-9-53.94-1-70.51,19.11-17.38,21.07-20.55,51.39-6.13,75s42,35,68.87,29.72c29.63-5.85,50.46-33.42,50.87-63,.11-7.85-7-15.36-15-15C437.53,310.37,430.87,316.59,430.75,325Z"/><path d="M673.75,500c0,1.41-.11,2.8-.18,4.2,0,.62-.48,2.88,0,.11a52.94,52.94,0,0,1-1.58,6.58c0-.12-1.42,4-.62,2s-.92,1.92-.88,1.84a54.19,54.19,0,0,1-3.73,6.2c-1.39,2.05,2.32-2.43-.47.6-.59.64-1.15,1.31-1.75,2a49.31,49.31,0,0,1-4.81,4.44c2.3-1.85-2.59,1.61-3.47,2.11s-1.94,1-2.92,1.54q-.89.45-1.8.84,2.3-1-.14,0c-2.18.6-4.33,1.2-6.52,1.76-.55.14-2.92.42-.07.09-1.16.13-2.31.21-3.47.26-2.11.09-4.2,0-6.31-.13-4.25-.19,2.62.82-1.45-.22-1.32-.34-2.65-.58-4-1-1.08-.31-2.13-.68-3.19-1-2.4-.8,3,1.61-.73-.27a61.11,61.11,0,0,1-5.76-3.2c-.74-.48-1.46-1-2.17-1.49,2.33,1.66,0,0-.55-.52-1.77-1.65-3.43-3.34-5.06-5.12-2.76-3,1.28,2.34-.85-1.13-.46-.75-1-1.46-1.43-2.21a44.62,44.62,0,0,1-3-5.86c1.08,2.57.19.36,0-.14-.35-1.3-.83-2.56-1.16-3.87-.22-.88-.37-1.77-.6-2.65-.29-1.76-.32-1.79-.09-.07-.08-.69-.14-1.38-.18-2.08a49.21,49.21,0,0,1,0-6.31c0-.45.69-4.88.08-1.5.16-.9.32-1.79.52-2.67a64.51,64.51,0,0,1,1.93-6.44c-.92,2.7,0,0,.34-.69.71-1.37,1.41-2.74,2.21-4.06.46-.75,1-1.46,1.43-2.21,2.15-3.49-1.15,1.25.43-.62a51.86,51.86,0,0,1,4.5-4.75c.81-.75,1.63-1.47,2.48-2.15-2.12,1.71-.35.28.12,0,2.28-1.39,4.48-2.73,6.86-3.93,2.58-1.3.67-.25.1-.05,1.26-.44,2.52-.89,3.82-1.26.86-.24,1.74-.47,2.62-.67.41-.09,4.82-.77,1.4-.37a48.91,48.91,0,0,1,6.28-.3c1.17,0,2.33.09,3.5.17,4.24.26-2.64-.72,1.45.22a74.06,74.06,0,0,1,7.77,2.21c-2.52-.88-.45-.23.1.05,1.38.69,2.75,1.38,4.08,2.17.95.55,1.84,1.19,2.78,1.76,3.32,2-1.73-1.79,1.13.85,2,1.79,3.76,3.6,5.55,5.55s.46.58.09.06c.89,1.25,1.74,2.53,2.52,3.85.57,1,1.1,1.91,1.59,2.89.2.39,1.66,4.22.63,1.29a74.06,74.06,0,0,1,2.21,7.77c.65,2.82.17.74.09.07a54.91,54.91,0,0,1,.31,5.58c.11,7.84,6.82,15.37,15,15s15.12-6.59,15-15a65.51,65.51,0,0,0-43.1-60.82c-24.48-9-53.94-1-70.51,19.11-17.38,21.07-20.55,51.39-6.13,75s42,35,68.87,29.72c29.63-5.85,50.46-33.42,50.87-63,.11-7.85-7-15.36-15-15C680.53,485.37,673.87,491.59,673.75,500Z"/><path d="M526.75,675c0,1.41-.11,2.8-.18,4.2,0,.62-.48,2.88,0,.11a52.94,52.94,0,0,1-1.58,6.58c0-.12-1.42,4-.62,2s-.92,1.92-.88,1.84a54.19,54.19,0,0,1-3.73,6.2c-1.39,2.05,2.32-2.43-.47.6-.59.64-1.15,1.31-1.75,2a49.31,49.31,0,0,1-4.81,4.44c2.3-1.85-2.59,1.61-3.47,2.11s-1.94,1-2.92,1.54q-.89.45-1.8.84,2.29-1-.14,0c-2.18.6-4.33,1.2-6.52,1.76-.55.14-2.92.42-.07.09-1.16.13-2.31.21-3.47.26-2.11.09-4.2,0-6.31-.13-4.25-.19,2.62.82-1.45-.22-1.32-.34-2.65-.58-4-1-1.08-.31-2.13-.68-3.19-1-2.4-.8,3,1.61-.73-.27a61.11,61.11,0,0,1-5.76-3.2c-.74-.48-1.46-1-2.17-1.49,2.33,1.66,0,0-.55-.52-1.77-1.65-3.43-3.34-5.06-5.12-2.76-3,1.28,2.34-.85-1.13-.46-.75-1-1.46-1.43-2.21a44.62,44.62,0,0,1-3.05-5.86c1.08,2.57.19.36.05-.14-.35-1.3-.83-2.56-1.16-3.87-.22-.88-.37-1.77-.6-2.65-.29-1.76-.32-1.79-.09-.07-.08-.69-.14-1.38-.18-2.08a49.21,49.21,0,0,1-.05-6.31c0-.45.69-4.88.08-1.5.16-.9.32-1.79.52-2.67a64.51,64.51,0,0,1,1.93-6.44c-.92,2.7,0,0,.34-.69.71-1.37,1.41-2.74,2.21-4.06.46-.75,1-1.46,1.43-2.21,2.15-3.49-1.15,1.25.43-.62a51.86,51.86,0,0,1,4.5-4.75c.81-.75,1.63-1.47,2.48-2.15-2.12,1.71-.35.28.12,0,2.28-1.39,4.48-2.73,6.86-3.93,2.58-1.3.67-.25.1,0,1.26-.44,2.52-.89,3.82-1.26.86-.24,1.74-.47,2.62-.67.41-.09,4.82-.77,1.4-.37a48.91,48.91,0,0,1,6.28-.3c1.17,0,2.33.09,3.5.17,4.24.26-2.64-.72,1.45.22a74.06,74.06,0,0,1,7.77,2.21c-2.52-.88-.45-.23.1,0,1.38.69,2.75,1.38,4.08,2.17.95.55,1.84,1.19,2.78,1.76,3.32,2-1.73-1.79,1.13.85,2,1.79,3.76,3.6,5.55,5.55s.46.58.09.06c.89,1.25,1.74,2.53,2.52,3.85.57,1,1.1,1.91,1.59,2.89.2.39,1.66,4.22.63,1.29a74.06,74.06,0,0,1,2.21,7.77c.65,2.82.17.74.09.07a54.91,54.91,0,0,1,.31,5.58c.11,7.84,6.82,15.37,15,15s15.12-6.59,15-15a65.51,65.51,0,0,0-43.1-60.82c-24.48-9-53.94-1-70.51,19.11-17.38,21.07-20.55,51.39-6.13,75s42,35,68.87,29.72c29.63-5.85,50.46-33.42,50.87-63,.11-7.85-7-15.36-15-15C533.53,660.37,526.87,666.59,526.75,675Z"/><path d="M213.25,340h118c7.85,0,15.36-6.9,15-15s-6.59-15-15-15h-118c-7.85,0-15.36,6.9-15,15s6.59,15,15,15Z"/><path d="M456.25,340h332c7.85,0,15.36-6.9,15-15s-6.59-15-15-15h-332c-7.85,0-15.36,6.9-15,15s6.59,15,15,15Z"/><path d="M701.75,515h85c7.85,0,15.36-6.9,15-15s-6.59-15-15-15h-85c-7.85,0-15.36,6.9-15,15s6.59,15,15,15Z"/><path d="M576.75,485H256.59c-14.7,0-29.49-.49-44.19,0h-.65c-7.85,0-15.36,6.9-15,15s6.59,15,15,15H531.91c14.7,0,29.49.49,44.19,0h.65c7.85,0,15.36-6.9,15-15s-6.59-15-15-15Z"/><path d="M430.25,660.5h-216c-7.85,0-15.36,6.9-15,15s6.59,15,15,15h216c7.85,0,15.36-6.9,15-15s-6.59-15-15-15Z"/><path d="M543.75,690.5h243c7.85,0,15.36-6.9,15-15s-6.59-15-15-15h-243c-7.85,0-15.36,6.9-15,15s6.59,15,15,15Z"/></svg>