<svg id="Lag_1" data-name="Lag 1" xmlns="http://www.w3.org/2000/svg" viewBox="0 0 1000 1000"><path d="M731,762H320.88c-17.15,0-34.57-.88-51.72,0-.67,0,.25-.44,1.26.26-2.68-1.84,2.16,3,.29.16a15.83,15.83,0,0,1,1.37,2.37c-.51-1.06.09-2.19-.08.21,0-.31,0-.62,0-.92a58.55,58.55,0,0,0,0-6.49V366.22c0-20.49.68-41.11,0-61.6,0-.49,0-1,0-1.48,0-.69-.34,1.39-.26,1.28,1.62-2.23-.18-.17-.59.63-.83,1.62,1.52-.73-.1.1-.4.21-3,1.23-1.24.76s-.46.11-.81.09c1.16.08,2.35,0,3.51,0H726.34c1.51,0,3,0,4.54,0,.09,0-2.9-1.31-.09.08a15.55,15.55,0,0,1-2.37-1.37c.87.59,1.12,2,0-.18-.52-1-1.41-1.65-.14-.11S728,302.5,728,303a8.51,8.51,0,0,1,0,1c-.56,6.3,0,12.9,0,19.22v432.9c0,2.38-.09,4.78,0,7.17,0,.5,0,1,0,1.51V765c-.17-2.42.44-1.26-.08-.21.09-.18,2.24-3.25.94-1.93s.89-.46,1.27-.7c1.57-.95-2.73,0,.87-.16-7.82.42-15.38,6.6-15,15,.35,7.76,6.61,15.46,15,15,15.34-.83,26.6-12.12,27-27.56,0-2,0-4,0-6V362.69c0-19.61.32-39.26,0-58.87-.2-12.49-8-23.89-20.45-27a38.28,38.28,0,0,0-9.41-.81h-456c-1.49,0-3,0-4.44.07-14.89,1-25.3,13-25.7,27.57-.17,6.16,0,12.35,0,18.51V758c0,2.09,0,4.18,0,6.27.23,12.93,8.61,24.64,21.71,27.12,5.77,1.1,11.92.61,17.76.61H731c7.85,0,15.36-6.9,15-15S739.41,762,731,762Z"/><path d="M260.5,454.5H678.75c19.29,0,38.68.58,58,0h.79c7.85,0,15.36-6.9,15-15s-6.59-15-15-15H319.25c-19.29,0-38.68-.58-58,0h-.79c-7.85,0-15.36,6.9-15,15s6.59,15,15,15Z"/><path d="M390.5,224V359c0,7.85,6.9,15.36,15,15s15-6.59,15-15V224c0-7.85-6.9-15.36-15-15s-15,6.59-15,15Z"/><path d="M579.5,223V358c0,7.85,6.9,15.36,15,15s15-6.59,15-15V223c0-7.85-6.9-15.36-15-15s-15,6.59-15,15Z"/><path d="M429.5,604.5H351.45a45.49,45.49,0,0,0-5.09,0c-.28,0-.57,0-.84,0,1.3-.09,1.71.65.19-.08l1.84.93c1.33.67-.57-1.23.1.1.21.4,1.23,3,.76,1.24s.1.62.09.81v-.14c0-.45,0-.91,0-1.36.07-2,0-3.92,0-5.87V531.48c0-2.1.07-4.22,0-6.32,0-.45,0-.9,0-1.34,0-.1,0-.2,0-.3,0-.28-.09,1-.13.69.2,1.38.7-1,0,.16-.37.57-.73,1.13-1.13,1.71.33-.48,1.66-1.1.34-.43-.61.31-1.2.62-1.84.93,1.07-.51,2.18.09-.21-.08.21,0,.44,0,.65,0a29.14,29.14,0,0,0,5,0h68.4c3.3,0,6.61-.07,9.9,0,.25,0,.44-.28-.69-.13-1.75.24,1.29.91-.16,0-.57-.37-1.13-.73-1.71-1.13.48.33,1.1,1.66.43.34-.31-.61-.62-1.21-.93-1.84.33.68,0,1.89.21.5.12-.82-.11-.91-.13-.52-.06,1.25,0,2.51,0,3.76v44c0,11.88-.55,23.9,0,35.77,0,.45,1-2.19-.08,0a16.44,16.44,0,0,1,1.37-2.37c-.3.45-1.68,1.16-.34.43.62-.34,1.19-.62,1.84-.93-.8.39-2.59.23.21.08-7.82.42-15.38,6.6-15,15,.35,7.76,6.61,15.46,15,15,15.52-.84,26.77-12.38,27-28,.08-5.36,0-10.73,0-16.09V537c0-4.42.16-8.88,0-13.31-.57-15.28-12-26.62-27.25-27.19-13.38-.5-26.87,0-40.25,0-14.24,0-28.51-.25-42.75,0-15.37.27-27.11,11.61-27.75,27-.16,3.75,0,7.54,0,11.29v53.11c0,6-.05,12,0,17.93.1,12.95,7.49,24.43,20.45,27.85,4.88,1.28,10.47.81,15.48.81H429.5c7.85,0,15.36-6.9,15-15S437.91,604.5,429.5,604.5Z"/></svg>