<svg id="Lag_1" data-name="Lag 1" xmlns="http://www.w3.org/2000/svg" viewBox="0 0 1000 1000"><path d="M695.51,373.27q0,21.21,0,42.42,0,51,.08,101.91,0,62.56.06,125.11,0,55.17,0,110.33,0,19.22-.07,38.43,0,6.51,0,13l0,4.58c0,.57,0,1.14,0,1.7,0,.28,0,.57,0,.84.25,2,.43-2.77.47-2.91-.64,2.27,1.41-3,.91-2-1.37,3,.4-.84.59-.58s-2.92,2.73-3.06,2.84c.28-.22,1.73-1.27.18-.26-1.21.78-2.42,1.55-3.66,2.3l7.57-2H274.72c-.73,0-1.46,0-2.19,0,3.29.07-1.37-1.11,1.5.4.82.44,1.51,2,.18,0,.34.52,3,3.55,1,1.16a2.85,2.85,0,0,1,.26,1.14c-.13-8.05,0-16.11,0-24.15V253.09c0-.66,0-1.32,0-2V251c-.05,2.1-.63,1.65.08.21-.1.19-2.24,3.23-.94,1.93s-1.74.84-1.93.94c2-1,1-.1-.12-.08a6.46,6.46,0,0,1,.88,0c5.21.61,10.86,0,16.09,0H408.85q83,0,166.06,0,7.15,0,14.31,0c7.85,0,15.36-6.92,15-15s-6.59-15-15-15c-23.76-.09-47.52,0-71.28,0H390.26l-102.21,0c-12.32,0-25.61-1.54-35.06,8.36-7,7.3-7.49,15.89-7.49,25V809.56c0,15.93,10.67,28.94,27.28,29.44,5,.15,10,0,14.93,0H687.25c4.77,0,10.54.75,15.24-.54,7.56-2.07,16-9.41,20-16.09a22.09,22.09,0,0,0,3-11.38c.1-3.28,0-6.57.06-9.84.12-28.14.11-56.28.12-84.41q0-62.79,0-125.58,0-62.34-.08-124.67,0-40.83-.07-81.66c0-3.85,0-7.71,0-11.56,0-7.85-6.9-15.36-15-15s-15,6.59-15,15Z"/><path d="M215.5,426.5h90c7.85,0,15.36-6.9,15-15s-6.59-15-15-15h-90c-7.85,0-15.36,6.9-15,15s6.59,15,15,15Z"/><path d="M215.5,666.5h90c7.85,0,15.36-6.9,15-15s-6.59-15-15-15h-90c-7.85,0-15.36,6.9-15,15s6.59,15,15,15Z"/><path d="M215.5,546.5h90c7.85,0,15.36-6.9,15-15s-6.59-15-15-15h-90c-7.85,0-15.36,6.9-15,15s6.59,15,15,15Z"/><path d="M769.5,275c0,2.57-.1,5.14-.3,7.7-.09,1.16-.21,2.3-.32,3.45-.44,4.47.65-2.91-.23,1.46a123.27,123.27,0,0,1-3.58,14.44c-.7,2.11-1.47,4.21-2.3,6.27,1.1-2.71,0,0-.35.68-.48,1-.94,2-1.44,3a98.21,98.21,0,0,1-7.46,12.42c-.21.31-2.83,3.79-.79,1.18q-.81,1-1.65,2-2.31,2.78-4.81,5.37c-1.66,1.73-3.39,3.41-5.18,5-.65.59-1.3,1.17-2,1.73-.44.38-4.72,3.68-2.09,1.75a103.45,103.45,0,0,1-11,7.14q-2.9,1.61-5.89,3c-.35.17-4.38,1.89-1.28.63-1.24.5-2.48,1-3.74,1.43a100.12,100.12,0,0,1-13,3.69c-1.33.28-2.68.49-4,.76-4.28.87,1.87-.16-.77.15s-5.54.54-8.32.64a110.53,110.53,0,0,1-14.67-.56c-4.39-.43,1.84.33-.78-.12-1.13-.19-2.25-.38-3.37-.6-2.65-.53-5.29-1.16-7.9-1.9-2.15-.62-4.28-1.3-6.38-2.06-1.26-.45-2.5-.93-3.74-1.43,2.57,1,.42.17-.08-.07a117.59,117.59,0,0,1-13.29-7.33c-.91-.6-1.82-1.22-2.71-1.85-.31-.21-3.79-2.83-1.18-.79q-2.58-2-5-4.23a98,98,0,0,1-10-10.38c.08.09-2.58-3.28-1.27-1.56s-1.24-1.75-1.17-1.66c-1.26-1.79-2.47-3.62-3.61-5.49s-2.23-3.8-3.25-5.75c-.61-1.17-1.2-2.36-1.76-3.56-.38-.81-1.62-3.73-.63-1.28a100.27,100.27,0,0,1-4.52-14c-.53-2.21-.94-4.44-1.36-6.67-.55-2.91-.15-.71-.07-.09-.24-1.83-.41-3.67-.54-5.51a102.5,102.5,0,0,1,0-14c.1-1.38.25-2.76.38-4.14.06-.58.48-2.93,0-.11.45-2.69,1-5.36,1.58-8A100.65,100.65,0,0,1,608,242.3c.94-2.39-1.54,3.12.31-.7.58-1.19,1.12-2.4,1.72-3.58,1.19-2.36,2.48-4.67,3.85-6.93,1.14-1.87,2.35-3.7,3.61-5.49.5-.72,1-1.42,1.54-2.13-1.95,2.66.66-.79.9-1.09a98,98,0,0,1,10-10.38q2.43-2.2,5-4.23c-2.61,2,.87-.58,1.18-.79.71-.51,1.44-1,2.17-1.49a112.69,112.69,0,0,1,13.23-7.41c.66-.32,3.39-1.45.68-.35,1.24-.5,2.48-1,3.74-1.43q3.15-1.14,6.38-2.06c2.17-.61,4.36-1.16,6.57-1.63,1.11-.23,2.23-.45,3.35-.64.67-.12,1.34-.24,2-.34-1.72.21-1.69.21.11,0a112.32,112.32,0,0,1,14-.58q3.82.11,7.65.51c.76.08,3.77.57.79.08,1.57.26,3.14.53,4.7.85A103,103,0,0,1,717,197c.69.26,3.4,1.44.73.26q2.12.93,4.2,2c2.37,1.17,4.68,2.44,7,3.8s4.42,2.85,6.6,4.33c.59.41,2.91,2.19.64.41,1.21.94,2.38,1.93,3.54,2.93a99.62,99.62,0,0,1,11,11.18c.7.84,1.4,1.68,2.07,2.54-2-2.51.81,1.2,1.17,1.72q2.25,3.24,4.24,6.65t3.72,7c.47,1,.93,2,1.38,3-1.31-2.95.51,1.38.73,2a99.12,99.12,0,0,1,4.32,15.58c.21,1.12.39,2.25.58,3.37-.55-3.3.16,1.5.22,2.17.27,3,.39,6,.41,9.09,0,7.84,6.86,15.36,15,15s15.06-6.59,15-15a115.5,115.5,0,0,0-76.44-107.63c-43.79-15.74-95.89-1.41-125.18,34.81C567.7,239.5,562.7,292.62,588,334.05c25.09,41.14,73.72,61.83,120.8,52.54,52.5-10.37,90.36-58.66,90.73-111.59,0-7.85-6.94-15.36-15-15S769.56,266.59,769.5,275Z"/><path d="M641.5,290h90c7.85,0,15.36-6.9,15-15s-6.59-15-15-15h-90c-7.85,0-15.36,6.9-15,15s6.59,15,15,15Z"/><path d="M701.5,319.5v-90c0-7.85-6.9-15.36-15-15s-15,6.59-15,15v90c0,7.85,6.9,15.36,15,15s15-6.59,15-15Z"/><path d="M529,459.5c0,1.4,0,2.79-.15,4.18,0,.46-.72,4.86-.1,1.46a64.43,64.43,0,0,1-1.87,7.85c-.4,1.27-.85,2.52-1.32,3.76,1.18-3.12-.43.85-.62,1.24a71.6,71.6,0,0,1-4.72,7.85c-2.3,3.43,2-1.93-.87,1.08-.89.94-1.72,1.94-2.63,2.88s-1.85,1.83-2.82,2.7c-.31.26-3.65,2.95-1,.95a57.75,57.75,0,0,1-6.58,4.26c-1.15.64-2.34,1.2-3.51,1.8q-2.37,1.07-.06.05c-.62.24-1.24.47-1.87.69-2.35.73-4.67,1.48-7.08,2-.42.09-4.83.79-1.38.36-1.37.17-2.75.27-4.13.33a72.57,72.57,0,0,1-8.34-.19c-4.32-.28,2.74.78-1.42-.23-1.75-.42-3.51-.75-5.24-1.25-1.28-.36-2.53-.83-3.8-1.23-4-1.25,2.41,1.37-1.3-.52a76.6,76.6,0,0,1-6.87-3.82c-1.1-.71-2.18-1.45-3.22-2.24,2.65,2-.69-.69-1-.95a65.15,65.15,0,0,1-6.29-6.58c1.75,2.08.29.41,0-.08-.73-1.08-1.48-2.15-2.17-3.26a59.36,59.36,0,0,1-3.67-7c1.36,3.08-.28-1-.41-1.35-.43-1.27-.81-2.55-1.15-3.84s-.57-2.64-.89-3.95q-.44-2.64-.09-.05c-.1-.91-.19-1.83-.25-2.74a58.32,58.32,0,0,1,0-8.36c0-.46.72-4.86.1-1.46.24-1.33.49-2.65.8-4a61.48,61.48,0,0,1,2.39-7.64c-1.18,3.12.43-.85.62-1.24.78-1.57,1.64-3.1,2.55-4.59.58-.93,1.2-1.82,1.8-2.73.41-.63,2.25-2.82.4-.61a66.81,66.81,0,0,1,5.33-5.7c1-.89,1.94-1.73,2.94-2.57-2.52,2.12.79-.53,1.15-.78a71,71,0,0,1,8-4.54c3.71-1.89-2.69.73,1.3-.52,1.27-.4,2.52-.87,3.8-1.23s2.6-.7,3.91-1c.42-.09,4.83-.79,1.38-.36a56.41,56.41,0,0,1,8.32-.38c1.39,0,2.77.15,4.15.24,1.8.2,1.82.19.09,0,.89.15,1.77.32,2.66.51,2.64.56,5.15,1.41,7.71,2.21,4,1.25-2.41-1.37,1.3.52,1.56.8,3.13,1.56,4.65,2.45,1.12.66,2.23,1.36,3.31,2.09.72.49,1.43,1,2.13,1.52q-2-1.53,0,.1c2.23,2.09,4.34,4.2,6.43,6.43,2.83,3-1.43-2.35.87,1.08,1,1.45,2,2.88,2.84,4.38.66,1.14,1.29,2.29,1.88,3.47.39.78.76,1.58,1.12,2.38q-1-2.33,0,.1c.94,3,1.74,6,2.48,9,1,4.16,0-2.9.23,1.42.12,1.85.24,3.69.26,5.55.09,7.84,6.83,15.37,15,15s15.1-6.59,15-15a74.59,74.59,0,0,0-48.89-69.22c-27.93-10.36-61.53-1.34-80.51,21.59-19.83,23.94-23.42,58.33-7.23,85.29s47.51,40.07,78.08,34.28c34-6.44,58.15-38,58.55-71.94.09-7.85-7-15.36-15-15C535.79,444.87,529.1,451.09,529,459.5Z"/><path d="M396.45,649.56l-.27-1.67c-.52-3.2.35,3.34.15,1.1s-.44-4.18-.57-6.28a118.18,118.18,0,0,1,.23-17.55c.06-.69.53-4.79.32-3.22s.45-2.73.59-3.46a109.36,109.36,0,0,1,3-12.25q.81-2.64,1.75-5.23a30.26,30.26,0,0,1,1.59-4,108.36,108.36,0,0,1,6.64-12.27c1.15-1.83,2.41-3.58,3.62-5.36,2-2.91-2.74,3.34-.36.48,2.12-2.55,4.28-5,6.59-7.42a125.26,125.26,0,0,1,10-9.27c.38-.31,3.85-3,2-1.66s1.41-1,1.88-1.34q3.89-2.77,8-5.21c2.56-1.52,5.18-2.95,7.86-4.26q2.23-1.09,4.51-2.08c-2.88,1.25,1.43-.51,2.34-.84a100.9,100.9,0,0,1,10.18-3.06c1.57-.39,3.14-.72,4.72-1l2.76-.49c1.67-.29-1.87.13,1-.14,3.71-.34,7.42-.59,11.15-.57q3.12,0,6.24.22l2.33.18c.09,0,4.88.62,2.06.19a100.5,100.5,0,0,1,21.14,5.67c.39.16,3,1.26,1.27.51s.8.39,1.18.57c1.34.65,2.68,1.29,4,2q4.59,2.38,8.92,5.21c2.38,1.54,4.68,3.18,6.94,4.88-2.63-2,.13.15,1.11,1s2,1.73,3,2.62a117.39,117.39,0,0,1,9.58,9.61c1.06,1.19,2.07,2.41,3.08,3.64,2.78,3.36-2-2.88.27.34,9.8,13.92,15.09,26.74,17.56,43.81-.46-3.21.21,2.43.27,3.19.15,1.82.26,3.64.32,5.47q.15,4.77-.07,9.56c-.12,2.35-.34,4.69-.57,7-.41,4,.43-2.46.1-.64-.13.7-.22,1.41-.34,2.11-1.31,7.71,2,16.53,10.48,18.45,7.26,1.65,17-2.2,18.45-10.48,5.1-30.07-.06-61.91-16.42-87.93a125.26,125.26,0,0,0-48.12-44,116.18,116.18,0,0,0-102.35-1.87,128,128,0,0,0-48.89,40.39c-19.43,26.64-25.47,61.31-20.15,93.43,1.33,8,11.23,12.47,18.45,10.48,8.49-2.33,11.81-10.43,10.48-18.45Z"/><path d="M383,669.75l69.11-.17,110.33-.27,25.56-.06c7.85,0,15.36-6.89,15-15s-6.59-15-15-15l-69.11.17-110.33.27-25.56.06c-7.85,0-15.36,6.89-15,15s6.59,15,15,15Z"/></svg>