<svg id="Lag_1" data-name="Lag 1" xmlns="http://www.w3.org/2000/svg" viewBox="0 0 1000 1000"><path d="M647.31,395.8h89.82c7.2,0,12-4.77,14.46-11,11.31-28.48,25.36-56.07,28.48-86.87,1.59-15.62.39-32.28-5-47.09a88.15,88.15,0,0,0-119.19-50.1c-16.61,7.52-31.33,20.38-40.26,36.34-8.55,15.27-12.06,33-11.83,50.42.48,34.83,16.49,65.56,29.09,97.3,3,7.52,10,12.79,18.45,10.48,7.16-2,13.49-10.88,10.48-18.45-7.5-18.89-15.76-37.66-22.55-56.81a114.75,114.75,0,0,1-4.82-21.29c.64,4.27,0-.25-.09-1.35-.15-1.51-.27-3-.36-4.54-.2-3.41-.26-6.84-.16-10.26.05-1.68.14-3.36.28-5,.07-.86.15-1.71.23-2.56.05-.47.46-3.18.14-1.24s.15-.79.24-1.25c.17-.86.33-1.74.51-2.6q.62-3,1.45-5.87A55.78,55.78,0,0,1,661,232a85.39,85.39,0,0,1,8.23-4.53c.58-.27,1.18-.51,1.75-.81,1.3-.68,1.53.15-1.28.52a15,15,0,0,0,2.62-1,52.36,52.36,0,0,1,19.87-3.46c1.95,0,3.91.08,5.86.23l2.69.27c-.55-.06-3-.55-.28,0s5.41,1.05,8.08,1.82c1.12.32,2.24.67,3.35,1.06.73.26,1.44.57,2.17.83,2.17.75-1.39-.6-1.41-.61a12.48,12.48,0,0,1,2.55,1.17,85.55,85.55,0,0,1,8.24,4.53c1.57,1,3.09,2,4.59,3.09,0,0,1.9,1.47.84.62s1.76,1.52,2,1.75c1.61,1.42,3.16,2.91,4.63,4.48.33.34,4.09,4.8,2.7,3a75.42,75.42,0,0,1,6.7,11.1c.21.42,1.21,2.64.19.25.36.85.68,1.72,1,2.58.55,1.5,1,3,1.5,4.54,1.09,3.66,1.74,7.35,2.48,11.08-.64-3.21.15,1.45.24,2.46.14,1.68.24,3.37.3,5.06.14,3.63.08,7.26-.13,10.88-.1,1.52-.21,3-.36,4.54-.07.73-.16,1.45-.23,2.18-.36,3.72.56-3.37,0,.19-.44,2.78-.9,5.55-1.49,8.3a101.46,101.46,0,0,1-2.83,10.87c-2.58,7.88-6.08,15.55-9.14,23.25l-13.76,34.66,14.46-11H647.31c-7.85,0-15.37,6.9-15,15S638.9,395.8,647.31,395.8Z"/><path d="M647.31,434.3h89.82c7.85,0,15.36-6.9,15-15s-6.59-15-15-15H647.31c-7.85,0-15.37,6.9-15,15s6.59,15,15,15Z"/><path d="M688,264.15a42.64,42.64,0,0,1,4.48.86c1.06.27,2.09.64,3.14.94,2.93.83-1.5-1.06,1.18.5s4.47,2.44,5.81,3.91a21.4,21.4,0,0,1,4.62,6.41c.47,1,.45.86-.06-.35.25.64.48,1.28.69,1.93.41,1.25.66,2.53,1,3.78.14.61.27,1.22.37,1.84-.2-1.82-.25-2.17-.13-1.06s.19,2.16.23,3.25c.06,1.77,0,3.51-.13,5.28-.2,4.3.58-3.17.09-.51-1.41,7.69,2.11,16.55,10.48,18.45,7.35,1.68,16.94-2.22,18.45-10.47,5.25-28.66-11.79-59.47-42.28-63.69-7.73-1.07-16.49,1.87-18.45,10.48-1.61,7.06,2.17,17.3,10.48,18.45Z"/><path d="M486.22,356.3V719.43c0,16.69-.52,33.48,0,50.16,0,.24,0,.48,0,.71,0,7.85,6.9,15.37,15,15s15-6.59,15-15V407.17c0-16.69.51-33.47,0-50.15,0-.24,0-.48,0-.72,0-7.84-6.9-15.36-15-15s-15,6.59-15,15Z"/><path d="M786.22,356.3V719.43c0,16.69-.52,33.48,0,50.16,0,.24,0,.48,0,.71,0,7.85,6.9,15.37,15,15s15-6.59,15-15V407.17c0-16.69.51-33.47,0-50.15,0-.24,0-.48,0-.72,0-7.84-6.9-15.36-15-15s-15,6.59-15,15Z"/><path d="M186.22,356.3V719.43c0,16.69-.52,33.48,0,50.16,0,.24,0,.48,0,.71,0,7.85,6.9,15.37,15,15s15-6.59,15-15V407.17c0-16.69.51-33.47,0-50.15,0-.24,0-.48,0-.72,0-7.84-6.9-15.36-15-15s-15,6.59-15,15Z"/><path d="M506.21,759.34a440.41,440.41,0,0,0-244.61-17.7,429.92,429.92,0,0,0-60.37,17.7c-7.58,2.84-12.76,10.14-10.48,18.45,2,7.29,10.83,13.33,18.46,10.48a431.11,431.11,0,0,1,51.71-15.75,383.84,383.84,0,0,1,63.71-9.73,419.93,419.93,0,0,1,69.85,1,399.07,399.07,0,0,1,55,9.5,435.84,435.84,0,0,1,48.74,14.95c7.37,2.74,16.76-3,18.45-10.48,1.94-8.5-2.58-15.52-10.47-18.45Z"/><path d="M506.41,336.34a440.41,440.41,0,0,0-244.61-17.7,429.92,429.92,0,0,0-60.37,17.7c-7.58,2.84-12.76,10.14-10.47,18.45,2,7.29,10.82,13.33,18.45,10.48a431.67,431.67,0,0,1,51.71-15.75,384,384,0,0,1,63.71-9.73,420.06,420.06,0,0,1,69.86,1,398.68,398.68,0,0,1,55,9.5,435.84,435.84,0,0,1,48.74,14.95c7.37,2.74,16.76-3,18.46-10.48,1.93-8.5-2.59-15.52-10.48-18.45Z"/><path d="M506.41,788.27a435.74,435.74,0,0,1,42.79-13.46q13.09-3.37,26.36-5.93,6.78-1.3,13.6-2.39,3.52-.56,7.05-1.06c5.12-.74-1.42.17,1.62-.22l4.87-.59a408,408,0,0,1,134,6.29,429.17,429.17,0,0,1,58.77,17.36c7.37,2.75,16.77-3.06,18.46-10.48,1.94-8.51-2.6-15.5-10.48-18.45C722.25,729,632.74,723.86,548.52,744.06a437.59,437.59,0,0,0-50.09,15.28c-7.59,2.82-12.75,10.16-10.47,18.45,2,7.3,10.82,13.31,18.45,10.48Z"/><path d="M754.38,352.54l41,12.73c7.5,2.32,16.7-2.75,18.45-10.48a15.31,15.31,0,0,0-10.47-18.45l-41.06-12.73c-7.49-2.32-16.69,2.75-18.45,10.48a15.32,15.32,0,0,0,10.48,18.45Z"/><path d="M506.41,365.27c37.68-13.62,76.91-22.47,116.12-25.39,7.81-.58,15.39-6.48,15-15-.34-7.63-6.62-15.62-15-15a467.07,467.07,0,0,0-124.1,26.46c-7.61,2.76-12.74,10.21-10.47,18.45,2,7.36,10.79,13.25,18.45,10.48Z"/><path d="M665,473.3h54.49c7.85,0,15.37-6.9,15-15s-6.59-15-15-15H665c-7.85,0-15.36,6.9-15,15s6.59,15,15,15Z"/><path d="M515.77,269.49l60.91,10.24c7.7,1.29,16.52-2,18.45-10.48,1.65-7.25-2.2-17.06-10.48-18.45l-60.9-10.24c-7.71-1.3-16.53,2-18.45,10.47-1.66,7.26,2.2,17.07,10.47,18.46Z"/><path d="M580.14,148.9l35.44,47.8c4.81,6.5,13,9.79,20.52,5.38,6.41-3.75,10.23-14,5.38-20.52L606,133.76c-4.81-6.5-13-9.79-20.52-5.39-6.41,3.75-10.23,14-5.38,20.53Z"/><path d="M764.77,199.07l30.68-39.35c5-6.38,6.23-15,0-21.21-5.18-5.18-16.2-6.43-21.21,0l-30.68,39.35c-5,6.38-6.22,15,0,21.21,5.18,5.19,16.2,6.43,21.21,0Z"/><path d="M807.91,276.6l59.78-9.55c8-1.28,12.45-11.26,10.47-18.45-2.34-8.53-10.42-11.76-18.45-10.48l-59.78,9.55c-8,1.28-12.45,11.26-10.48,18.45,2.35,8.52,10.43,11.76,18.46,10.48Z"/></svg>